<svg width="15" height="17" viewBox="0 0 15 17" fill="none" xmlns="http://www.w3.org/2000/svg">
<g id="Subtract">
<path d="M6.77413 8.67229C6.8151 9.45727 6.75765 10.2663 6.59794 11.0218C6.52035 11.3887 6.41746 11.7482 6.28747 12.089C6.49457 11.8529 6.7146 11.6295 6.95437 11.4299C7.43923 11.0263 7.99568 10.7278 8.67378 10.5994C7.90006 10.1058 7.31235 9.44545 6.88779 8.83902C6.8486 8.78305 6.81072 8.72742 6.77413 8.67229Z" fill="url(#paint0_linear_265_4069)"/>
<path fill-rule="evenodd" clip-rule="evenodd" d="M4.43401 16.4956C4.22139 16.5294 4.02897 16.3654 4.02897 16.1501V15.2344C4.0957 15.2548 4.16655 15.2658 4.23996 15.2658C4.63761 15.2658 4.95996 14.9435 4.95996 14.5458C4.95996 14.1482 4.63761 13.8258 4.23996 13.8258C3.84232 13.8258 3.51996 14.1482 3.51996 14.5458C3.51996 14.5641 3.52064 14.5821 3.52197 14.6H1.34299C0.986807 14.6 0.645212 14.4585 0.393353 14.2067C0.141493 13.9548 0 13.6132 0 13.257V7.88507C0.000243587 6.57234 0.35033 5.28338 1.01422 4.1509C1.67811 3.01841 2.63182 2.08331 3.77716 1.44186C4.92251 0.800411 6.21811 0.475788 7.5306 0.501407C8.84309 0.527027 10.125 0.901964 11.2445 1.58762C11.8358 1.94982 12.4 2.34 12.8347 2.89885C12.8775 2.9539 12.921 3.00938 12.965 3.0655C13.3678 3.57909 13.8126 4.14621 14.1539 4.92646C14.6631 6.09065 14.8378 6.92769 14.7785 8.07914C14.7337 8.0704 14.6873 8.06582 14.64 8.06582C14.2423 8.06582 13.92 8.38818 13.92 8.78582C13.92 9.16809 14.2179 9.48078 14.5942 9.50439C14.5834 9.55076 14.5718 9.59924 14.5591 9.6506C14.3344 10.5645 14.047 11.1813 13.6095 11.8655L13.6016 11.8779C13.5381 11.8158 13.4697 11.7584 13.3966 11.7059C13.048 11.4556 12.6162 11.3333 12.1524 11.3204C12.125 11.566 12.0233 11.7893 11.8704 11.9672C12.3495 11.9291 12.7464 12.027 13.0233 12.2258C13.0966 12.2784 13.1643 12.3401 13.2245 12.4116C12.5605 13.2682 11.7142 13.9706 10.7439 14.4657V15.6007L7.39061 16.0763C6.43525 15.952 5.72343 15.4403 5.42838 14.7126C5.39048 14.9846 5.26137 15.2275 5.07295 15.4092C5.30609 15.7667 5.61999 16.0571 5.99257 16.2745L4.43401 16.4956ZM7.19097 6.25113C7.29828 6.43084 7.35995 6.64096 7.35995 6.86549C7.35995 6.87362 7.35986 6.88173 7.3597 6.88982C8.71518 6.11784 9.76434 5.9708 10.6943 6.19679C11.6793 6.43614 12.588 7.10574 13.6229 8.06097L14.057 7.59069C13.0118 6.62599 12.0005 5.85558 10.8455 5.57489C9.75242 5.30928 8.58007 5.49219 7.19097 6.25113ZM6.07689 8.06266C6.1961 8.98079 6.16432 9.97859 5.97177 10.8894C5.74162 11.9781 5.29347 12.8919 4.65277 13.4184C5.03244 13.5575 5.32223 13.883 5.41136 14.284C5.56903 14.079 5.72108 13.872 5.86955 13.6695L5.89037 13.6411C6.04649 13.4281 6.19861 13.2206 6.35316 13.02C6.6764 12.6004 7.00023 12.2245 7.36385 11.9218C7.96685 11.4198 8.69782 11.1021 9.75995 11.1821C9.76063 10.9347 9.83615 10.705 9.96506 10.5143C8.81209 10.1294 7.97632 9.27792 7.41207 8.47197C7.23552 8.21979 7.08746 7.97471 6.96635 7.75416C6.75329 7.9476 6.47039 8.06549 6.15995 8.06549C6.13203 8.06549 6.10433 8.06453 6.07689 8.06266ZM6.87996 6.86582C6.87996 7.26347 6.55761 7.58582 6.15996 7.58582C5.76232 7.58582 5.43996 7.26347 5.43996 6.86582C5.43996 6.46818 5.76232 6.14582 6.15996 6.14582C6.55761 6.14582 6.87996 6.46818 6.87996 6.86582ZM2.30248 8.9152C2.68133 8.83491 3.15173 8.7352 3.07225 8.40052C2.98036 8.01364 2.2809 7.84844 1.89402 7.94032C1.50714 8.03221 1.03449 8.47578 1.12637 8.86266C1.20563 9.19637 1.61024 9.08936 1.96824 8.99467C2.02529 8.97958 2.08116 8.9648 2.13433 8.95217C2.18653 8.93978 2.24339 8.92773 2.30248 8.9152ZM11.68 11.1858C11.68 11.5835 11.3576 11.9058 10.96 11.9058C10.5623 11.9058 10.24 11.5835 10.24 11.1858C10.24 10.7882 10.5623 10.4658 10.96 10.4658C11.3576 10.4658 11.68 10.7882 11.68 11.1858Z" fill="url(#paint1_linear_265_4069)"/>
</g>
<defs>
<linearGradient id="paint0_linear_265_4069" x1="1.04609" y1="17.1535" x2="17.2969" y2="5.02917" gradientUnits="userSpaceOnUse">
<stop stop-color="#5E49B7"/>
<stop offset="1" stop-color="#906DD9"/>
</linearGradient>
<linearGradient id="paint1_linear_265_4069" x1="1.04609" y1="17.1535" x2="17.2969" y2="5.02917" gradientUnits="userSpaceOnUse">
<stop stop-color="#5E49B7"/>
<stop offset="1" stop-color="#906DD9"/>
</linearGradient>
</defs>
</svg>
