<svg width="133" height="40" viewBox="0 0 133 40" fill="none" xmlns="http://www.w3.org/2000/svg">
<g id="aifa_logo">
<path id="Vector" d="M127.167 34.0426C126.202 34.0426 125.482 33.7335 125.011 33.1154C124.729 32.7468 124.585 32.3271 124.585 31.8621C124.585 31.2298 124.822 30.7081 125.296 30.2885C125.77 29.8717 126.394 29.6618 127.164 29.6618H132.052L131.589 31.1986H127.181C126.811 31.1986 126.569 31.3347 126.447 31.6098C126.411 31.6948 126.394 31.7799 126.394 31.865C126.394 32.1258 126.521 32.3158 126.775 32.4377C126.896 32.4916 127.031 32.5199 127.184 32.5199H129.664C130.587 32.5199 131.287 32.8177 131.764 33.4103C132.066 33.793 132.215 34.224 132.215 34.7117C132.215 35.3412 131.981 35.8629 131.51 36.2769C131.042 36.688 130.424 36.895 129.664 36.895H124.588L125.05 35.3582H129.647C130.023 35.3582 130.268 35.2249 130.381 34.9584C130.418 34.879 130.435 34.7968 130.435 34.7117C130.435 34.4509 130.313 34.2609 130.074 34.139C129.947 34.0766 129.805 34.0482 129.647 34.0482H127.167V34.0426ZM118.041 34.0426V35.3525H121.39C121.754 35.3525 121.997 35.2164 122.124 34.9414C122.161 34.8506 122.178 34.7627 122.178 34.6777C122.178 34.4168 122.048 34.2297 121.788 34.1134C121.667 34.0652 121.534 34.0397 121.39 34.0397H118.041V34.0426ZM116.331 32.2619L118.041 31.7969V32.5143H121.201C121.565 32.5143 121.808 32.3782 121.935 32.1031C121.972 32.0124 121.989 31.9245 121.989 31.8394C121.989 31.5729 121.859 31.3829 121.599 31.2667C121.478 31.2185 121.345 31.193 121.201 31.193H116.331L116.793 29.6562H121.218C122.149 29.6562 122.855 29.9425 123.337 30.5181C123.645 30.8839 123.8 31.2922 123.8 31.7459C123.8 32.2874 123.563 32.7411 123.084 33.1097C123.03 33.1607 122.973 33.2004 122.911 33.2373C123.515 33.5775 123.865 34.0284 123.961 34.5926C123.981 34.689 123.989 34.7826 123.989 34.8648C123.989 35.4546 123.75 35.9394 123.264 36.3222C122.793 36.6965 122.175 36.8865 121.41 36.8865H116.333V32.2562L116.331 32.2619ZM110.266 35.9281L110.89 34.4537H112.899L111.496 31.451L108.991 36.8893H107.19L110.602 29.9397L112.32 29.4775L115.859 36.8893H114.048L113.596 35.9253H110.266V35.9281ZM100.544 29.6618H102.257V35.3554H107.317L106.854 36.8921H100.544V29.6618Z" fill="#7B5ECB"/>
<path id="Vector_2" d="M100.768 27.4847C101.99 25.4404 103.164 23.4669 104.394 21.4084H103.869C99.8169 21.4056 95.7674 21.3971 91.715 21.4084C91.3594 21.4084 91.1817 21.2979 91.0349 20.9774C90.5862 20.0219 90.1008 19.0862 89.5788 18.0343H90.2476C95.4598 18.0343 100.669 18.0258 105.881 18.0343C106.276 18.0343 106.494 17.9265 106.7 17.5778C109.313 13.1772 111.943 8.78801 114.573 4.39879C115.245 3.2788 116.252 2.85916 117.308 3.25612C117.906 3.48012 118.264 3.96497 118.58 4.48952C120.353 7.44119 122.122 10.39 123.894 13.3417C126.626 17.8982 129.355 22.4547 132.086 27.0112C132.162 27.136 132.225 27.2692 132.318 27.445C132.157 27.4564 132.044 27.4734 131.934 27.4734C130.534 27.4734 129.132 27.462 127.732 27.4819C127.41 27.4876 127.247 27.3685 127.091 27.1048C126.053 25.3326 124.997 23.5719 123.962 21.7969C123.807 21.5275 123.634 21.4254 123.321 21.4254C118.727 21.4311 114.133 21.4254 109.539 21.4084C109.231 21.4084 109.05 21.502 108.892 21.777C107.857 23.5662 106.796 25.344 105.757 27.1331C105.61 27.3855 105.45 27.4847 105.153 27.4819C103.728 27.4649 102.3 27.4734 100.771 27.4734M121.71 17.9918C119.926 14.9862 118.188 12.0516 116.402 9.0432C114.63 12.0544 112.9 14.9947 111.133 17.9918H121.707H121.71Z" fill="#D23C26"/>
<path id="Vector_3" d="M71.1812 27.6488C69.5219 27.6488 67.9698 27.6601 66.4177 27.6346C66.2455 27.6318 66.0085 27.4617 65.9125 27.3C64.8515 25.5421 63.8045 23.7785 62.7717 22.0035C62.5826 21.6774 62.3794 21.5441 61.9928 21.547C58.5274 21.564 55.062 21.5555 51.5966 21.5555H51.1056C51.3709 21.1018 51.5966 20.7162 51.8196 20.3306C52.1751 19.7181 52.5476 19.1114 52.875 18.4847C53.0245 18.2012 53.2052 18.1161 53.5128 18.1161C55.6377 18.1275 57.7598 18.1218 59.8848 18.1218C60.0485 18.1218 60.2093 18.1218 60.4689 18.1218C58.6742 15.0907 56.9217 12.1334 55.1213 9.09385C54.5766 10.0154 54.08 10.8546 53.5861 11.6968C50.544 16.86 47.4991 22.0233 44.4711 27.1951C44.2679 27.541 44.0478 27.663 43.6499 27.6573C42.2671 27.6289 40.8816 27.646 39.4141 27.646C39.5072 27.4645 39.5665 27.3369 39.6399 27.215C44.1635 19.6501 48.6872 12.0824 53.2136 4.51749C53.651 3.78879 54.2098 3.21036 55.1044 3.13381C56.0949 3.04591 56.7552 3.5818 57.2378 4.38139C58.3468 6.21874 59.4446 8.06176 60.548 9.90194C63.6775 15.1219 66.8071 20.3419 69.9367 25.5619C70.3374 26.2311 70.7381 26.9031 71.1812 27.646" fill="#7B5ECB"/>
<path id="Vector_4" d="M82.4112 3.47168H102.679C102.679 4.23724 102.679 4.97445 102.679 5.71166C102.679 6.22487 102.659 6.74091 102.684 7.25412C102.701 7.5887 102.569 7.69077 102.267 7.65675C102.222 7.65108 102.176 7.65675 102.131 7.65675C97.0996 7.65675 92.0709 7.65675 87.0393 7.65391H86.5426V27.4536H82.4084V3.47168H82.4112Z" fill="#D23C26"/>
<path id="Vector_5" d="M77.9616 9.05151H73.8415V27.4619H77.9616V9.05151Z" fill="#7B5ECB"/>
<path id="Vector_6" d="M77.9616 5.22714C77.9616 6.36981 77.0388 7.29699 75.9015 7.29699C74.7643 7.29699 73.8415 6.36981 73.8415 5.22714C73.8415 4.08447 74.7643 3.15729 75.9015 3.15729C77.0388 3.15729 77.9616 4.08447 77.9616 5.22714Z" fill="#D23C26"/>
<path id="Vector_7" d="M25.7825 23.799V25.1033L27.7382 23.1384V21.8341L25.7825 23.799Z" fill="#D23C26"/>
<path id="Vector_8" d="M24.4554 29.6817C24.4525 29.7101 24.4497 29.7413 24.4441 29.7696C24.2296 29.8263 24.0434 29.9511 23.9079 30.1184L21.1057 28.4256C21.1593 28.3009 21.1903 28.1648 21.1903 28.0202C21.1903 27.8047 21.1226 27.6062 21.0097 27.4418L24.0462 24.6631C24.1619 24.7623 24.3002 24.8332 24.4554 24.8729V22.9108C24.3086 22.9476 24.1703 23.0157 24.0575 23.1092L22.3417 21.4931C22.4602 21.3258 22.5308 21.1245 22.5308 20.9033C22.5308 20.6623 22.4461 20.4411 22.305 20.2653L24.1026 18.3684C24.207 18.445 24.3256 18.5017 24.4554 18.5329V16.5708C24.2635 16.619 24.0941 16.7182 23.9643 16.8572L22.2768 15.6323C22.353 15.4877 22.3981 15.3232 22.3981 15.1502C22.3981 14.9376 22.3304 14.7391 22.2204 14.5747L24.0434 12.9188C24.1591 13.018 24.3002 13.0917 24.4554 13.1314V11.1665C24.3763 11.1863 24.303 11.2147 24.2324 11.2515C23.4902 10.1202 22.2147 9.36884 20.767 9.36884C18.5631 9.36884 16.7542 11.1041 16.6272 13.2874C16.2039 13.4093 15.8963 13.7977 15.8963 14.2599C15.8963 14.3138 15.9019 14.3648 15.9104 14.4159C14.8324 15.0283 14.1354 16.1823 14.1354 17.4866C14.1354 17.739 14.1636 17.9913 14.2172 18.2352C13.887 18.4025 13.6585 18.7427 13.6585 19.1397C13.6585 19.4742 13.8193 19.7691 14.0676 19.9534C13.6613 20.6424 13.4412 21.4307 13.4412 22.2501C13.4412 23.3361 13.8334 24.3738 14.522 25.1848C14.3893 25.3577 14.3075 25.5732 14.3075 25.8086C14.3075 26.2395 14.5756 26.6081 14.9566 26.7528C14.9368 26.9002 14.9255 27.0505 14.9255 27.1979C14.9255 28.4427 15.6197 29.5343 16.661 30.0787C16.6554 30.1212 16.6526 30.1638 16.6526 30.2063C16.6526 30.7649 17.1041 31.2185 17.66 31.2185C17.7786 31.2185 17.8914 31.1958 17.9987 31.159C18.6534 32.2818 19.8668 33.0105 21.2073 33.0105C22.3925 33.0105 23.4507 32.4491 24.1308 31.5758C24.2296 31.6438 24.3425 31.6949 24.4638 31.7232V29.6761L24.4554 29.6817ZM23.8797 23.2992C23.7612 23.4665 23.6906 23.6678 23.6906 23.889C23.6906 24.1101 23.7583 24.303 23.8712 24.4674L20.8348 27.2461C20.7332 27.1582 20.6118 27.093 20.482 27.0505L21.5177 21.9127H21.5233C21.766 21.9127 21.9889 21.8248 22.1639 21.683L23.8797 23.2992ZM15.9189 25.0033L16.9574 23.1745C17.0759 23.2227 17.2029 23.251 17.3383 23.251C17.4512 23.251 17.5613 23.2312 17.6628 23.1971L19.6213 27.1809C19.5 27.2603 19.4012 27.368 19.325 27.49L16.2744 26.1063C16.3027 26.0127 16.3168 25.9135 16.3168 25.8114C16.3168 25.4825 16.1587 25.1904 15.916 25.0033H15.9189ZM15.6621 19.0262L17.7249 18.5045C17.8717 18.8788 18.2357 19.1453 18.6618 19.1453C18.8989 19.1453 19.119 19.0631 19.2911 18.9242L20.7134 20.3022C20.5892 20.4695 20.5131 20.6793 20.5131 20.9033C20.5131 20.9657 20.5187 21.0252 20.53 21.0819L18.2498 21.8078C18.089 21.4619 17.7419 21.2237 17.3383 21.2237C17.1323 21.2237 16.9404 21.2861 16.7796 21.3938L15.4137 19.8145C15.5718 19.6359 15.6677 19.4005 15.6677 19.1425C15.6677 19.1028 15.6677 19.0631 15.6592 19.0234L15.6621 19.0262ZM18.3655 17.1634L17.4371 15.1219C17.6121 15.0113 17.7503 14.8497 17.8322 14.6569L20.3832 15.1559C20.3832 15.4026 20.4735 15.6266 20.6175 15.8024L19.2432 17.3052C19.0795 17.1889 18.8791 17.118 18.6618 17.118C18.5574 17.118 18.4586 17.135 18.3655 17.1634ZM17.8999 23.0809C18.1708 22.8994 18.3486 22.5904 18.3486 22.2388C18.3486 22.1764 18.3429 22.1169 18.3317 22.0601L20.6118 21.3343C20.736 21.6008 20.973 21.805 21.2609 21.8815L20.228 27.0136C20.228 27.0136 20.1998 27.0136 20.1857 27.0136C20.07 27.0136 19.9628 27.0335 19.8584 27.0675L17.8999 23.0837V23.0809ZM23.8119 17.0727C23.7329 17.2173 23.6906 17.3817 23.6906 17.5547C23.6906 17.7957 23.7753 18.0168 23.9164 18.1926L22.1188 20.0895C21.9523 19.9676 21.7463 19.8939 21.5233 19.8939C21.2863 19.8939 21.0662 19.9761 20.894 20.115L19.4717 18.737C19.5959 18.5697 19.6721 18.3599 19.6721 18.1359C19.6721 17.8892 19.5846 17.6624 19.4351 17.4866L20.8094 15.9839C20.973 16.1001 21.1734 16.171 21.3907 16.171C21.6814 16.171 21.941 16.0491 22.1244 15.8506L23.8119 17.0755V17.0727ZM22.0454 14.3818C21.8704 14.2316 21.6418 14.138 21.3907 14.138C20.9222 14.138 20.53 14.4612 20.4171 14.8951L17.8999 14.4017C17.9055 14.3563 17.9112 14.3081 17.9112 14.2628C17.9112 14.2174 17.9055 14.172 17.8999 14.1267L23.7668 12.536C23.795 12.6012 23.8289 12.6664 23.8684 12.7231L22.0454 14.379V14.3818ZM20.767 9.80549C22.0821 9.80549 23.2391 10.4973 23.8994 11.5351C23.7696 11.7052 23.6906 11.9179 23.6906 12.1504C23.6906 12.1957 23.6934 12.2411 23.7019 12.2865L17.835 13.8771C17.7024 13.5596 17.4145 13.3214 17.0646 13.2675C17.2057 11.3366 18.8114 9.80832 20.767 9.80832V9.80549ZM16.0684 14.8298C16.249 15.0992 16.5566 15.275 16.9037 15.275C17.0081 15.275 17.1069 15.258 17.2 15.2296L18.1285 17.2711C17.8435 17.4498 17.6544 17.7673 17.6544 18.1303C17.6544 18.17 17.6572 18.2097 17.6628 18.2493L15.6 18.7711C15.4532 18.3968 15.0892 18.1303 14.6631 18.1303C14.6518 18.1303 14.6433 18.1303 14.632 18.1303C14.5869 17.9204 14.5643 17.7049 14.5643 17.4866C14.5643 16.3666 15.1513 15.3714 16.0656 14.827L16.0684 14.8298ZM14.855 24.9097C14.2285 24.1782 13.8729 23.2368 13.8729 22.253C13.8729 21.4959 14.0789 20.7672 14.4627 20.1349C14.5276 20.1491 14.5954 20.1547 14.6631 20.1547C14.8691 20.1547 15.061 20.0924 15.2218 19.9846L16.5877 21.5639C16.4296 21.7426 16.3337 21.9779 16.3337 22.2359C16.3337 22.5648 16.4917 22.8569 16.7344 23.044L15.6959 24.8729C15.5774 24.8247 15.4504 24.7963 15.315 24.7963C15.1485 24.7963 14.9933 24.836 14.855 24.9097ZM17.6572 29.1969C17.2988 29.1969 16.9856 29.384 16.8078 29.6676C15.9358 29.1884 15.3573 28.2584 15.3573 27.2007C15.3573 27.0732 15.3658 26.9456 15.3855 26.818C15.7185 26.7953 16.0063 26.611 16.1728 26.3416L19.2234 27.7253C19.1952 27.8189 19.1811 27.9181 19.1811 28.0202C19.1811 28.2243 19.2432 28.4171 19.3476 28.5759L18.3317 29.4549C18.1539 29.2933 17.9197 29.1969 17.66 29.1969H17.6572ZM21.2016 32.5795C20.0136 32.5795 18.9384 31.9302 18.3627 30.9321C18.549 30.7478 18.6647 30.4927 18.6647 30.2091C18.6647 30.005 18.6026 29.8122 18.4982 29.6534L19.5141 28.7744C19.6919 28.936 19.9261 29.0324 20.1857 29.0324C20.5046 29.0324 20.7896 28.8821 20.973 28.6496L23.7753 30.3424C23.7216 30.4671 23.6906 30.6032 23.6906 30.7478C23.6906 30.9321 23.7414 31.1051 23.8261 31.2554C23.2278 32.0578 22.274 32.5767 21.1988 32.5767L21.2016 32.5795Z" fill="#7B5ECB"/>
<path id="Vector_9" d="M35.9569 22.2501C35.9569 21.4307 35.7396 20.6424 35.3304 19.9534C35.5787 19.7691 35.7396 19.4742 35.7396 19.1397C35.7396 18.7427 35.511 18.3996 35.1808 18.2352C35.2345 17.9913 35.2627 17.739 35.2627 17.4866C35.2627 16.1823 34.5656 15.0283 33.4877 14.4159C33.4961 14.3648 33.5018 14.3138 33.5018 14.2599C33.5018 13.7978 33.1913 13.4065 32.7709 13.2874C32.6411 11.1041 30.835 9.36884 28.631 9.36884C27.1833 9.36884 25.9078 10.1174 25.1656 11.2515C25.0951 11.2147 25.0217 11.1863 24.9427 11.1665V31.7289C25.064 31.6977 25.1741 31.6495 25.2729 31.5815C25.2813 31.59 25.2898 31.5985 25.2954 31.6098V16.5991L26.0348 15.8137C25.9642 15.689 25.9219 15.5472 25.9219 15.3941C25.9219 14.9291 26.2972 14.5491 26.7629 14.5491C27.2285 14.5491 27.6038 14.9262 27.6038 15.3941C27.6038 15.8619 27.2285 16.239 26.7629 16.239C26.6274 16.239 26.5004 16.205 26.3875 16.1483L25.7808 16.7948V18.5924L28.5464 15.8137V14.7788C28.1993 14.6739 27.9481 14.3507 27.9481 13.9707C27.9481 13.5029 28.3234 13.1258 28.7891 13.1258C29.2547 13.1258 29.63 13.5029 29.63 13.9707C29.63 14.3535 29.3788 14.6739 29.0317 14.7788V16.015L25.7808 19.2814V23.1092L27.7365 21.1443V19.8429C27.3922 19.7379 27.1382 19.4147 27.1382 19.0348C27.1382 18.5669 27.5135 18.1898 27.9791 18.1898C28.4448 18.1898 28.8201 18.5669 28.8201 19.0348C28.8201 19.4175 28.5689 19.7379 28.2218 19.8429V20.6566L29.582 19.2899C29.5171 19.1709 29.4833 19.0348 29.4833 18.8902C29.4833 18.4223 29.8586 18.0452 30.3242 18.0452C30.7898 18.0452 31.1652 18.4223 31.1652 18.8902C31.1652 19.358 30.7898 19.7351 30.3242 19.7351C30.1803 19.7351 30.0448 19.6982 29.9263 19.6359L28.2218 21.3485V23.3446L25.7808 25.7972V27.9153L29.8388 23.8379V21.6433L31.659 19.8145C31.5913 19.6926 31.5518 19.5508 31.5518 19.4005C31.5518 18.9327 31.9271 18.5556 32.3927 18.5556C32.8584 18.5556 33.2337 18.9327 33.2337 19.4005C33.2337 19.8684 32.8584 20.2455 32.3927 20.2455C32.2544 20.2455 32.1246 20.2115 32.0118 20.1519L30.327 21.8447V24.0393L25.7836 28.6043V29.5428L32.15 23.1461V22.4713C31.8029 22.3664 31.5518 22.0431 31.5518 21.6632C31.5518 21.1953 31.9271 20.8182 32.3927 20.8182C32.8584 20.8182 33.2337 21.1953 33.2337 21.6632C33.2337 22.046 32.9825 22.3664 32.6354 22.4713V23.3503L29.5651 26.4352H31.2047L33.276 24.354C33.2026 24.2292 33.1575 24.0818 33.1575 23.923C33.1575 23.4552 33.5328 23.0781 33.9984 23.0781C34.4641 23.0781 34.8394 23.4552 34.8394 23.923C34.8394 24.3909 34.4641 24.768 33.9984 24.768C33.8686 24.768 33.7445 24.7368 33.6344 24.6829L31.405 26.9229H29.0797L25.7836 30.2346V32.1174C26.4327 32.6788 27.2765 33.019 28.1993 33.019C29.5397 33.019 30.7532 32.2903 31.4079 31.1675C31.5123 31.2043 31.628 31.227 31.7465 31.227C32.3024 31.227 32.7539 30.7734 32.7539 30.2148C32.7539 30.1723 32.7511 30.1297 32.7455 30.0872C33.784 29.5428 34.481 28.4512 34.481 27.2064C34.481 27.0561 34.4697 26.9087 34.4499 26.7613C34.8281 26.6167 35.099 26.248 35.099 25.8171C35.099 25.5817 35.02 25.3662 34.8845 25.1961C35.5731 24.3852 35.9654 23.3503 35.9654 22.2615" fill="#D23C26"/>
<path id="Vector_10" fill-rule="evenodd" clip-rule="evenodd" d="M13.0317 13.2025C12.4278 14.0645 12.3347 14.7818 12.7552 15.3489C12.7552 15.3489 11.2595 16.7269 8.26541 19.4829C7.34826 20.4498 7.89008 21.4025 9.88805 22.3354C9.58327 22.5991 9.35752 23.0839 9.21642 23.7871C8.5984 24.2209 8.65202 24.7937 9.38291 25.5054C8.75361 25.857 8.52785 26.2256 8.69999 26.6083C9.36034 27.3455 9.27003 28.3663 8.42344 29.6678C7.45268 31.1989 8.12431 32.2848 10.4412 32.9256C14.3242 33.453 16.8047 35.8121 17.8771 40C9.11765 39.0757 1.99496 32.4918 0.352566 23.7984C-1.29265 15.1079 2.92904 6.35782 10.7403 2.26916C18.5515 -1.81951 28.1068 -0.279879 34.2559 6.05727C26.391 3.09426 17.5328 6.07428 13.0346 13.2025" fill="#7B5ECB"/>
</g>
</svg>
