<svg width="341" height="103" viewBox="0 0 341 103" fill="none" xmlns="http://www.w3.org/2000/svg">
<path d="M327.452 87.6597C324.966 87.6597 323.113 86.8639 321.9 85.2722C321.173 84.3231 320.803 83.2425 320.803 82.0451C320.803 80.4169 321.413 79.0735 322.634 77.9929C323.855 76.9197 325.461 76.3794 327.444 76.3794H340.03L338.838 80.3366H327.488C326.536 80.3366 325.911 80.6871 325.599 81.3953C325.504 81.6143 325.461 81.8333 325.461 82.0524C325.461 82.7241 325.788 83.2133 326.442 83.5272C326.754 83.666 327.103 83.739 327.495 83.739H333.883C336.259 83.739 338.061 84.5056 339.289 86.0315C340.066 87.0172 340.452 88.127 340.452 89.3828C340.452 91.0036 339.848 92.3471 338.635 93.413C337.429 94.4717 335.837 95.0047 333.883 95.0047H320.81L322.002 91.0474H333.839C334.805 91.0474 335.438 90.7043 335.728 90.018C335.823 89.8136 335.866 89.6018 335.866 89.3828C335.866 88.7111 335.554 88.2219 334.936 87.9079C334.609 87.7473 334.246 87.6743 333.839 87.6743H327.452V87.6597ZM303.951 87.6597V91.0328H312.577C313.514 91.0328 314.139 90.6824 314.466 89.9742C314.561 89.7405 314.604 89.5142 314.604 89.2952C314.604 88.6235 314.27 88.1416 313.601 87.8422C313.289 87.7181 312.947 87.6524 312.577 87.6524H303.951V87.6597ZM299.548 83.0746L303.951 81.8772V83.7244H312.09C313.027 83.7244 313.652 83.3739 313.979 82.6657C314.074 82.432 314.117 82.2057 314.117 81.9867C314.117 81.3004 313.783 80.8112 313.115 80.5118C312.802 80.3877 312.461 80.322 312.09 80.322H299.548L300.74 76.3648H312.134C314.532 76.3648 316.348 77.1022 317.591 78.5843C318.383 79.5262 318.783 80.5775 318.783 81.7457C318.783 83.1403 318.172 84.3085 316.937 85.2576C316.799 85.389 316.653 85.4912 316.494 85.5862C318.049 86.4623 318.95 87.6232 319.197 89.0761C319.248 89.3244 319.269 89.5653 319.269 89.777C319.269 91.2957 318.652 92.5442 317.402 93.5299C316.188 94.4936 314.597 94.9828 312.628 94.9828H299.555V83.06L299.548 83.0746ZM283.932 92.515L285.538 88.7184H290.712L287.1 80.9864L280.647 94.9901H276.011L284.797 77.0949L289.222 75.9048L298.334 94.9901H293.669L292.506 92.5077H283.932V92.515ZM258.898 76.3794H263.309V91.0402H276.338L275.147 94.9974H258.898V76.3794Z" fill="#EAEDF7"/>
<path d="M259.476 70.7731C262.623 65.5089 265.646 60.4273 268.814 55.1266H267.462C257.027 55.1193 246.6 55.0974 236.165 55.1266C235.249 55.1266 234.791 54.8419 234.414 54.0168C233.258 51.5563 232.008 49.1469 230.664 46.4382H232.386C245.808 46.4382 259.222 46.4163 272.643 46.4382C273.661 46.4382 274.22 46.1608 274.751 45.2627C281.479 33.9313 288.252 22.629 295.024 11.3268C296.754 8.44281 299.348 7.36224 302.066 8.3844C303.606 8.9612 304.529 10.2097 305.343 11.5604C309.906 19.161 314.463 26.7542 319.026 34.3547C326.06 46.0877 333.087 57.8207 340.121 69.5538C340.317 69.875 340.477 70.2182 340.717 70.6708C340.303 70.7 340.012 70.7439 339.729 70.7439C336.124 70.7439 332.513 70.7146 328.909 70.7658C328.08 70.7804 327.659 70.4737 327.259 69.7947C324.585 65.2314 321.867 60.6974 319.2 56.1269C318.801 55.4333 318.357 55.1704 317.551 55.1704C305.721 55.185 293.891 55.1704 282.061 55.1266C281.269 55.1266 280.804 55.3675 280.397 56.0758C277.73 60.6828 274.998 65.2607 272.324 69.8677C271.946 70.5175 271.531 70.7731 270.768 70.7658C267.099 70.7219 263.422 70.7439 259.483 70.7439M313.402 46.3287C308.809 38.5894 304.333 31.0327 299.733 23.2861C295.17 31.04 290.715 38.6113 286.166 46.3287H313.394H313.402Z" fill="#EAEDF7"/>
<path d="M183.292 71.196C179.02 71.196 175.023 71.2252 171.026 71.1595C170.583 71.1522 169.973 70.7141 169.726 70.2979C166.993 65.7712 164.297 61.2299 161.638 56.6593C161.151 55.8197 160.628 55.4765 159.632 55.4838C150.709 55.5276 141.786 55.5057 132.862 55.5057H131.598C132.281 54.3375 132.862 53.3446 133.436 52.3516C134.352 50.7746 135.311 49.2121 136.154 47.5985C136.539 46.8684 137.004 46.6494 137.796 46.6494C143.268 46.6786 148.732 46.664 154.204 46.664C154.626 46.664 155.04 46.664 155.708 46.664C151.087 38.859 146.574 31.2439 141.938 23.417C140.536 25.7899 139.257 27.951 137.985 30.1195C130.152 43.415 122.311 56.7104 114.514 70.0278C113.991 70.9186 113.424 71.2325 112.399 71.2179C108.839 71.1449 105.271 71.1887 101.492 71.1887C101.732 70.7214 101.885 70.3929 102.074 70.0789C113.722 50.5993 125.37 31.1125 137.026 11.6329C138.152 9.75648 139.591 8.26704 141.895 8.06991C144.445 7.84357 146.145 9.2235 147.388 11.2824C150.244 16.0136 153.071 20.7594 155.912 25.4978C163.97 38.9393 172.029 52.3808 180.088 65.8223C181.12 67.5454 182.152 69.2758 183.292 71.1887" fill="#EAEDF7"/>
<path d="M212.214 8.93945H264.403C264.403 10.9108 264.403 12.8091 264.403 14.7074C264.403 16.0289 264.352 17.3577 264.418 18.6792C264.461 19.5408 264.12 19.8036 263.342 19.716C263.226 19.7014 263.11 19.716 262.993 19.716C250.037 19.716 237.088 19.716 224.132 19.7087H222.853V70.6929H212.207V8.93945H212.214Z" fill="#EAEDF7"/>
<path d="M200.746 23.3076H190.137V70.7142H200.746V23.3076Z" fill="#EAEDF7"/>
<path d="M200.746 13.4598C200.746 16.4021 198.37 18.7896 195.441 18.7896C192.513 18.7896 190.137 16.4021 190.137 13.4598C190.137 10.5174 192.513 8.12988 195.441 8.12988C198.37 8.12988 200.746 10.5174 200.746 13.4598Z" fill="#EAEDF7"/>
<path d="M66.3867 61.2821V64.6407L71.4225 59.581V56.2224L66.3867 61.2821Z" fill="#EAEDF7"/>
<path d="M62.9749 76.4307C62.9676 76.5037 62.9603 76.584 62.9458 76.657C62.3935 76.8031 61.9139 77.1243 61.5651 77.5551L54.3494 73.1963C54.4875 72.875 54.5674 72.5246 54.5674 72.1522C54.5674 71.5973 54.393 71.0862 54.1023 70.6628L61.9212 63.5076C62.2191 63.7631 62.5752 63.9457 62.9749 64.0479V58.9955C62.597 59.0904 62.2409 59.2656 61.9503 59.5066L57.5322 55.3449C57.8374 54.9141 58.019 54.3957 58.019 53.8262C58.019 53.2056 57.801 52.6361 57.4377 52.1835L62.0665 47.299C62.3354 47.4961 62.6406 47.6421 62.9749 47.7224V42.67C62.4807 42.7941 62.0447 43.0497 61.7105 43.4074L57.365 40.2533C57.5612 39.881 57.6775 39.4575 57.6775 39.0121C57.6775 38.4645 57.5031 37.9534 57.2197 37.53L61.9139 33.2661C62.2119 33.5216 62.5752 33.7115 62.9749 33.8137V28.754C62.7714 28.8051 62.5825 28.8781 62.4008 28.973C60.4897 26.0598 57.2052 24.125 53.4774 24.125C47.8022 24.125 43.1443 28.5933 42.8173 34.2152C41.7273 34.5292 40.9352 35.5295 40.9352 36.7195C40.9352 36.8583 40.9498 36.9897 40.9716 37.1211C38.1957 38.6982 36.4009 41.6698 36.4009 45.0283C36.4009 45.6781 36.4735 46.3279 36.6116 46.9558C35.7614 47.3866 35.1728 48.2627 35.1728 49.2849C35.1728 50.1464 35.587 50.9058 36.2265 51.3803C35.1801 53.1545 34.6133 55.1843 34.6133 57.2943C34.6133 60.0906 35.6233 62.7629 37.3964 64.851C37.0549 65.2964 36.8441 65.8513 36.8441 66.4573C36.8441 67.5671 37.5345 68.5162 38.5154 68.8886C38.4646 69.2682 38.4355 69.6552 38.4355 70.0349C38.4355 73.2401 40.2231 76.051 42.9045 77.4529C42.8899 77.5624 42.8827 77.6719 42.8827 77.7814C42.8827 79.2198 44.0453 80.388 45.4769 80.388C45.7821 80.388 46.0727 80.3295 46.3489 80.2346C48.0347 83.1259 51.1593 85.0023 54.611 85.0023C57.663 85.0023 60.3879 83.5567 62.1392 81.3079C62.3935 81.4831 62.6842 81.6145 62.9967 81.6876V76.4161L62.9749 76.4307ZM61.4925 59.9957C61.1873 60.4265 61.0056 60.9449 61.0056 61.5144C61.0056 62.0839 61.18 62.5804 61.4707 63.0038L53.6518 70.159C53.3902 69.9326 53.0777 69.7647 52.7435 69.6552L55.4103 56.4255H55.4248C56.0498 56.4255 56.6238 56.1991 57.0744 55.8341L61.4925 59.9957ZM40.9934 64.3837L43.6675 59.6745C43.9727 59.7986 44.2997 59.8716 44.6485 59.8716C44.9391 59.8716 45.2225 59.8205 45.4841 59.7329L50.5271 69.9911C50.2147 70.1955 49.9604 70.4729 49.7642 70.7869L41.909 67.2239C41.9816 66.983 42.018 66.7274 42.018 66.4646C42.018 65.6176 41.611 64.8656 40.9861 64.3837H40.9934ZM40.3321 48.9928L45.644 47.6494C46.0219 48.6132 46.9592 49.2995 48.0565 49.2995C48.6669 49.2995 49.2337 49.0878 49.677 48.73L53.3393 52.2784C53.0196 52.7091 52.8234 53.2494 52.8234 53.8262C52.8234 53.9869 52.8379 54.1402 52.867 54.2862L46.9956 56.1553C46.5814 55.2646 45.6876 54.6513 44.6485 54.6513C44.118 54.6513 43.6239 54.8119 43.2097 55.0893L39.6926 51.0226C40.0996 50.5626 40.3466 49.9566 40.3466 49.2922C40.3466 49.19 40.3466 49.0878 40.3248 48.9855L40.3321 48.9928ZM47.2935 44.196L44.9028 38.9391C45.3533 38.6544 45.7094 38.2382 45.9201 37.7417L52.4891 39.0267C52.4891 39.6619 52.7217 40.2387 53.0923 40.6914L49.5534 44.561C49.132 44.2617 48.616 44.0791 48.0565 44.0791C47.7876 44.0791 47.5333 44.123 47.2935 44.196ZM46.0945 59.4335C46.7921 58.9663 47.2499 58.1704 47.2499 57.2651C47.2499 57.1045 47.2354 56.9511 47.2063 56.8051L53.0777 54.936C53.3975 55.6223 54.0079 56.148 54.749 56.3451L52.0895 69.5603C52.0895 69.5603 52.0168 69.5603 51.9805 69.5603C51.6825 69.5603 51.4064 69.6114 51.1375 69.699L46.0945 59.4408V59.4335ZM61.3181 43.9623C61.1146 44.3347 61.0056 44.7582 61.0056 45.2035C61.0056 45.8241 61.2236 46.3936 61.5869 46.8463L56.9581 51.7308C56.5294 51.4168 55.9989 51.227 55.4248 51.227C54.8144 51.227 54.2477 51.4387 53.8044 51.7965L50.142 48.2481C50.4618 47.8174 50.6579 47.2771 50.6579 46.7003C50.6579 46.0651 50.4327 45.481 50.0476 45.0283L53.5864 41.1587C54.0079 41.458 54.5238 41.6405 55.0833 41.6405C55.8318 41.6405 56.5003 41.3266 56.9726 40.8155L61.3181 43.9696V43.9623ZM56.7692 37.0335C56.3186 36.6465 55.73 36.4056 55.0833 36.4056C53.8771 36.4056 52.867 37.2379 52.5763 38.355L46.0945 37.0846C46.1091 36.9678 46.1236 36.8437 46.1236 36.7268C46.1236 36.61 46.1091 36.4932 46.0945 36.3764L61.2018 32.2804C61.2745 32.4484 61.3617 32.6163 61.4634 32.7623L56.7692 37.0262V37.0335ZM53.4774 25.2494C56.8636 25.2494 59.8429 27.0309 61.5433 29.7031C61.2091 30.1412 61.0056 30.6888 61.0056 31.2875C61.0056 31.4043 61.0129 31.5211 61.0347 31.6379L45.9274 35.7339C45.5859 34.9162 44.8447 34.3029 43.9436 34.1641C44.3069 29.192 48.4416 25.2567 53.4774 25.2567V25.2494ZM41.3785 38.1871C41.8436 38.8807 42.6356 39.3334 43.5294 39.3334C43.7983 39.3334 44.0526 39.2896 44.2924 39.2166L46.6831 44.4734C45.9492 44.9334 45.4623 45.7511 45.4623 46.6857C45.4623 46.7879 45.4696 46.8901 45.4841 46.9923L40.1722 48.3357C39.7944 47.372 38.857 46.6857 37.7597 46.6857C37.7307 46.6857 37.7089 46.6857 37.6798 46.6857C37.5635 46.1454 37.5054 45.5905 37.5054 45.0283C37.5054 42.1443 39.0168 39.5816 41.3712 38.1798L41.3785 38.1871ZM38.2539 64.1428C36.6407 62.2591 35.7251 59.8351 35.7251 57.3016C35.7251 55.3522 36.2555 53.4758 37.2438 51.8476C37.4109 51.8841 37.5853 51.8987 37.7597 51.8987C38.2902 51.8987 38.7843 51.7381 39.1985 51.4606L42.7155 55.5274C42.3086 55.9874 42.0616 56.5934 42.0616 57.2578C42.0616 58.1047 42.4685 58.8567 43.0934 59.3386L40.4193 64.0479C40.1141 63.9238 39.7871 63.8508 39.4383 63.8508C39.0096 63.8508 38.6099 63.953 38.2539 64.1428ZM45.4696 75.1822C44.5467 75.1822 43.7401 75.6641 43.2823 76.3942C41.037 75.1603 39.5473 72.7655 39.5473 70.0422C39.5473 69.7136 39.5691 69.3851 39.62 69.0565C40.4774 68.9981 41.2186 68.5235 41.6474 67.8299L49.5026 71.3929C49.4299 71.6338 49.3936 71.8894 49.3936 72.1522C49.3936 72.6779 49.5534 73.1744 49.8223 73.5832L47.2063 75.8466C46.7485 75.4304 46.1454 75.1822 45.4769 75.1822H45.4696ZM54.5964 83.8925C51.5372 83.8925 48.7686 82.2205 47.2862 79.6505C47.7658 79.1759 48.0638 78.5188 48.0638 77.7887C48.0638 77.263 47.9039 76.7666 47.635 76.3577L50.251 74.0943C50.7088 74.5105 51.3119 74.7587 51.9805 74.7587C52.8016 74.7587 53.5355 74.3718 54.0079 73.7731L61.2236 78.1319C61.0855 78.4531 61.0056 78.8036 61.0056 79.176C61.0056 79.6505 61.1364 80.0959 61.3544 80.4829C59.8139 82.5491 57.3578 83.8852 54.5892 83.8852L54.5964 83.8925Z" fill="#EAEDF7"/>
<path d="M92.5842 57.2943C92.5842 55.1843 92.0247 53.1545 90.971 51.3803C91.6105 50.9058 92.0247 50.1464 92.0247 49.2849C92.0247 48.2627 91.4361 47.3793 90.5859 46.9558C90.724 46.3279 90.7966 45.6781 90.7966 45.0283C90.7966 41.6698 89.0018 38.6982 86.2259 37.1211C86.2477 36.9897 86.2623 36.8583 86.2623 36.7195C86.2623 35.5295 85.4629 34.5219 84.3802 34.2152C84.046 28.5933 79.3953 24.125 73.7201 24.125C69.9923 24.125 66.7078 26.0525 64.7967 28.973C64.6151 28.8781 64.4261 28.8051 64.2227 28.754V81.7022C64.5351 81.6219 64.8185 81.4977 65.0728 81.3225C65.0946 81.3444 65.1164 81.3663 65.131 81.3955V42.743L67.0348 40.7206C66.8532 40.3993 66.7442 40.0343 66.7442 39.64C66.7442 38.4426 67.7106 37.4643 68.9096 37.4643C70.1086 37.4643 71.0751 38.4353 71.0751 39.64C71.0751 40.8447 70.1086 41.8158 68.9096 41.8158C68.5608 41.8158 68.2338 41.7282 67.9432 41.5821L66.3808 43.2468V47.8758L73.5021 40.7206V38.0557C72.6083 37.7855 71.9616 36.9532 71.9616 35.9748C71.9616 34.7701 72.928 33.7991 74.127 33.7991C75.326 33.7991 76.2925 34.7701 76.2925 35.9748C76.2925 36.9605 75.6458 37.7855 74.752 38.0557V41.239L66.3808 49.65V59.5066L71.4166 54.4468V51.0956C70.5301 50.8254 69.8761 49.9931 69.8761 49.0147C69.8761 47.81 70.8425 46.839 72.0415 46.839C73.2405 46.839 74.207 47.81 74.207 49.0147C74.207 50.0004 73.5602 50.8254 72.6665 51.0956V53.191L76.169 49.6719C76.0018 49.3652 75.9146 49.0147 75.9146 48.6424C75.9146 47.4377 76.8811 46.4666 78.0801 46.4666C79.2791 46.4666 80.2455 47.4377 80.2455 48.6424C80.2455 49.8471 79.2791 50.8181 78.0801 50.8181C77.7095 50.8181 77.3607 50.7232 77.0555 50.5626L72.6665 54.9725V60.1126L66.3808 66.4281V71.8821L76.8302 61.383V55.7318L81.5172 51.0226C81.3428 50.7086 81.241 50.3436 81.241 49.9566C81.241 48.7519 82.2075 47.7808 83.4065 47.7808C84.6055 47.7808 85.5719 48.7519 85.5719 49.9566C85.5719 51.1613 84.6055 52.1324 83.4065 52.1324C83.0504 52.1324 82.7162 52.0447 82.4255 51.8914L78.0873 56.2502V61.9013L66.3881 73.6563V76.0729L82.7816 59.6015V57.8638C81.8878 57.5936 81.241 56.7613 81.241 55.7829C81.241 54.5783 82.2075 53.6072 83.4065 53.6072C84.6055 53.6072 85.5719 54.5783 85.5719 55.7829C85.5719 56.7686 84.9252 57.5936 84.0314 57.8638V60.1272L76.1254 68.0709H80.3473L85.6809 62.7118C85.492 62.3905 85.3757 62.0109 85.3757 61.602C85.3757 60.3973 86.3422 59.4262 87.5412 59.4262C88.7402 59.4262 89.7066 60.3973 89.7066 61.602C89.7066 62.8067 88.7402 63.7777 87.5412 63.7777C87.2069 63.7777 86.8872 63.6974 86.6038 63.5587L80.8632 69.3266H74.8755L66.3881 77.8544V82.7024C68.0594 84.1481 70.2321 85.0242 72.6083 85.0242C76.06 85.0242 79.1846 83.1478 80.8705 80.2565C81.1393 80.3514 81.4372 80.4099 81.7424 80.4099C83.174 80.4099 84.3366 79.2417 84.3366 77.8033C84.3366 77.6938 84.3294 77.5843 84.3148 77.4748C86.9889 76.0729 88.7838 73.262 88.7838 70.0568C88.7838 69.6698 88.7547 69.2901 88.7039 68.9105C89.6776 68.5381 90.3752 67.589 90.3752 66.4792C90.3752 65.8732 90.1717 65.3183 89.8229 64.8802C91.596 62.7921 92.606 60.1272 92.606 57.3235" fill="#EAEDF7"/>
<path fill-rule="evenodd" clip-rule="evenodd" d="M33.5567 33.9965C32.0017 36.216 31.7619 38.0632 32.8446 39.5235C32.8446 39.5235 28.9933 43.0718 21.2834 50.1686C18.9218 52.6583 20.317 55.1115 25.4617 57.5136C24.6769 58.1926 24.0956 59.4411 23.7323 61.2518C22.1409 62.3689 22.2789 63.8437 24.161 65.6763C22.5405 66.5817 21.9592 67.5308 22.4025 68.5165C24.1029 70.4148 23.8703 73.0432 21.6904 76.3945C19.1906 80.3371 20.9201 83.1335 26.886 84.7835C36.8848 86.1416 43.2722 92.2161 46.0335 103C23.4779 100.62 5.13702 83.6665 0.907858 61.281C-3.32857 38.9029 7.54227 16.3714 27.6562 5.84308C47.7702 -4.68523 72.3749 -0.720688 88.2089 15.5975C67.9568 7.96773 45.147 15.6413 33.564 33.9965" fill="#EAEDF7"/>
</svg>
